{
	"asset":{
		"version":"2.0",
		"generator":"Created using the official Cinema 4D glTF Exporter 1.000x284978"
	},
	"scenes":[{
		"nodes":[0]
	}],
	"nodes":[{
		"scale":[1.0,
		1.0,
		1.0],
		"name":"Cloner",
		"translation":[0.0,
		0.7130351662635803,
		4.366080957459044e-17],
		"rotation":[0.7071067690849304,
		0.0,
		0.0,
		-0.7071067690849304],
		"children":[1,
		3,
		5,
		7,
		9]
	},
	{
		"scale":[1.3837045431137086,
		1.3837045431137086,
		1.0],
		"name":"Extrude-Y_1_0Extrude-Y_1_0",
		"translation":[0.0,
		0.0,
		0.0],
		"rotation":[0.0,
		0.0,
		7.450580596923828e-9,
		-1.0],
		"children":[2]
	},
	{
		"scale":[1.375170111656189,
		1.011684775352478,
		0.7227119207382202],
		"name":"Extrude-Y_1_0Extrude-Y",
		"translation":[0.04210522025823593,
		-0.46688732504844668,
		-0.363002210855484],
		"rotation":[-0.6045546531677246,
		0.3605119287967682,
		-0.5634744763374329,
		-0.4324828088283539],
		"mesh":0
	},
	{
		"scale":[1.0317139625549317,
		1.0317139625549317,
		1.0],
		"name":"Extrude-N_1_1Extrude-N_1_1",
		"translation":[0.0,
		0.0,
		0.0],
		"rotation":[0.0,
		0.0,
		0.0,
		-1.0],
		"children":[4]
	},
	{
		"scale":[1.0278465747833253,
		1.0027538537979127,
		0.9704474210739136],
		"name":"Extrude-N_1_1Extrude-N",
		"translation":[0.04431677982211113,
		-0.7533876895904541,
		0.7666383981704712],
		"rotation":[0.09127177298069,
		0.6254638433456421,
		0.32972079515457156,
		-0.7012479305267334],
		"mesh":1
	},
	{
		"scale":[1.0674834251403809,
		1.0674834251403809,
		1.0],
		"name":"Extrude-R_1_2Extrude-R_1_2",
		"translation":[0.0,
		0.0,
		0.0],
		"rotation":[0.0,
		0.0,
		0.0,
		-1.0],
		"children":[6]
	},
	{
		"scale":[1.0184260606765748,
		1.0237672328948975,
		0.9618481397628784],
		"name":"Extrude-R_1_2Extrude-R",
		"translation":[0.46149179339408877,
		0.431948184967041,
		-0.23055142164230348],
		"rotation":[-0.7577810883522034,
		0.4998561441898346,
		0.06586936861276627,
		0.41421353816986086],
		"mesh":2
	},
	{
		"scale":[1.2965694665908814,
		1.2965694665908814,
		1.0],
		"name":"Extrude-O_1_3Extrude-O_1_3",
		"translation":[0.0,
		0.0,
		0.0],
		"rotation":[0.0,
		0.0,
		7.450580596923828e-9,
		-1.0],
		"children":[8]
	},
	{
		"scale":[1.0172747373580933,
		1.0593717098236085,
		0.9521235227584839],
		"name":"Extrude-O_1_3Extrude-O",
		"translation":[-0.627666175365448,
		0.45239725708961489,
		0.0981183648109436],
		"rotation":[0.017399020493030549,
		0.19771544635295869,
		-0.891671359539032,
		0.4068513810634613],
		"mesh":3
	},
	{
		"scale":[1.317271113395691,
		1.317271113395691,
		1.0],
		"name":"Extrude-H_5_4Extrude-H_5_4",
		"translation":[0.0,
		0.0,
		0.0],
		"rotation":[0.0,
		0.0,
		0.0,
		-1.0],
		"children":[10]
	},
	{
		"scale":[1.1091841459274293,
		1.054087519645691,
		0.8962457776069641],
		"name":"Extrude-H_5_4Extrude-H_7",
		"translation":[0.9343994855880737,
		0.07662191241979599,
		-0.10197451710700989],
		"rotation":[-0.07344822585582733,
		-0.29376986622810366,
		0.3240883946418762,
		0.8962540626525879],
		"mesh":4
	}],
	"meshes":[{
		"name":"Extrude-Y_1_0Extrude-Y",
		"primitives":[{
			"attributes":{
				"POSITION":3
			},
			"indices":2,
			"material":0
		}]
	},
	{
		"name":"Extrude-N_1_1Extrude-N",
		"primitives":[{
			"attributes":{
				"POSITION":13
			},
			"indices":12,
			"material":0
		}]
	},
	{
		"name":"Extrude-R_1_2Extrude-R",
		"primitives":[{
			"attributes":{
				"POSITION":23
			},
			"indices":22,
			"material":0
		}]
	},
	{
		"name":"Extrude-O_1_3Extrude-O",
		"primitives":[{
			"attributes":{
				"POSITION":33
			},
			"indices":32,
			"material":0
		}]
	},
	{
		"name":"Extrude-H_5_4Extrude-H_7",
		"primitives":[{
			"attributes":{
				"POSITION":43
			},
			"indices":42,
			"material":0
		}]
	}],
	"accessors":[{
		"bufferView":0,
		"type":"SCALAR",
		"componentType":5126,
		"count":1201,
		"min":[0.0],
		"byteOffset":0,
		"max":[40.0]
	},
	{
		"bufferView":0,
		"type":"VEC3",
		"componentType":5126,
		"count":1201,
		"min":[1.0,
		1.0,
		1.0],
		"byteOffset":4804,
		"max":[2.7791507244110109,
		2.7791507244110109,
		1.0]
	},
	{
		"bufferView":1,
		"type":"SCALAR",
		"componentType":5123,
		"count":96,
		"min":[0],
		"byteOffset":0,
		"max":[17]
	},
	{
		"bufferView":2,
		"type":"VEC3",
		"componentType":5126,
		"count":18,
		"min":[-0.39250001311302187,
		-0.3780972361564636,
		-0.20000000298023225],
		"byteOffset":0,
		"max":[0.39250001311302187,
		0.3819027543067932,
		4.8067385986117636e-17]
	},
	{
		"bufferView":3,
		"type":"SCALAR",
		"componentType":5126,
		"count":1201,
		"min":[0.0],
		"byteOffset":0,
		"max":[40.0]
	},
	{
		"bufferView":3,
		"type":"VEC3",
		"componentType":5126,
		"count":1201,
		"min":[-1.142759919166565,
		-1.991422176361084,
		-0.6938565373420715],
		"byteOffset":4804,
		"max":[0.7541536092758179,
		0.48813438415527346,
		1.2926386594772339]
	},
	{
		"bufferView":4,
		"type":"SCALAR",
		"componentType":5126,
		"count":1201,
		"min":[0.0],
		"byteOffset":0,
		"max":[40.0]
	},
	{
		"bufferView":4,
		"type":"VEC4",
		"componentType":5126,
		"count":1201,
		"min":[-0.9448137283325195,
		-0.9868548512458801,
		-0.8788344860076904,
		-1.0],
		"byteOffset":4804,
		"max":[0.481518417596817,
		0.9995215535163879,
		0.8453654646873474,
		0.9952886700630188]
	},
	{
		"bufferView":5,
		"type":"SCALAR",
		"componentType":5126,
		"count":1201,
		"min":[0.0],
		"byteOffset":0,
		"max":[40.0]
	},
	{
		"bufferView":5,
		"type":"VEC3",
		"componentType":5126,
		"count":1201,
		"min":[1.0,
		1.0,
		0.37344640493392947],
		"byteOffset":4804,
		"max":[2.53173828125,
		2.606990098953247,
		1.0]
	},
	{
		"bufferView":6,
		"type":"SCALAR",
		"componentType":5126,
		"count":1201,
		"min":[0.0],
		"byteOffset":0,
		"max":[40.0]
	},
	{
		"bufferView":6,
		"type":"VEC3",
		"componentType":5126,
		"count":1201,
		"min":[1.0,
		1.0,
		1.0],
		"byteOffset":4804,
		"max":[1.5919890403747559,
		1.5919890403747559,
		1.0]
	},
	{
		"bufferView":7,
		"type":"SCALAR",
		"componentType":5123,
		"count":108,
		"min":[0],
		"byteOffset":0,
		"max":[19]
	},
	{
		"bufferView":8,
		"type":"VEC3",
		"componentType":5126,
		"count":20,
		"min":[-0.36149999499320986,
		-0.3780972361564636,
		-0.20000000298023225],
		"byteOffset":0,
		"max":[0.36149999499320986,
		0.3819027543067932,
		4.427098100780141e-17]
	},
	{
		"bufferView":9,
		"type":"SCALAR",
		"componentType":5126,
		"count":1201,
		"min":[0.0],
		"byteOffset":0,
		"max":[40.0]
	},
	{
		"bufferView":9,
		"type":"VEC3",
		"componentType":5126,
		"count":1201,
		"min":[-0.9106637835502625,
		-1.5333125591278077,
		-1.8097586631774903],
		"byteOffset":4804,
		"max":[1.461222767829895,
		1.2800365686416627,
		1.6355273723602296]
	},
	{
		"bufferView":10,
		"type":"SCALAR",
		"componentType":5126,
		"count":1201,
		"min":[0.0],
		"byteOffset":0,
		"max":[40.0]
	},
	{
		"bufferView":10,
		"type":"VEC4",
		"componentType":5126,
		"count":1201,
		"min":[-0.9652924537658691,
		-0.8696936964988709,
		-0.9961215853691101,
		-1.0],
		"byteOffset":4804,
		"max":[0.5402902364730835,
		0.7836704254150391,
		0.9827737808227539,
		0.9769965410232544]
	},
	{
		"bufferView":11,
		"type":"SCALAR",
		"componentType":5126,
		"count":1201,
		"min":[0.0],
		"byteOffset":0,
		"max":[40.0]
	},
	{
		"bufferView":11,
		"type":"VEC3",
		"componentType":5126,
		"count":1201,
		"min":[1.0,
		1.0,
		0.6357223987579346],
		"byteOffset":4804,
		"max":[1.4888100624084473,
		1.433771014213562,
		1.0]
	},
	{
		"bufferView":12,
		"type":"SCALAR",
		"componentType":5126,
		"count":1201,
		"min":[0.0],
		"byteOffset":0,
		"max":[40.0]
	},
	{
		"bufferView":12,
		"type":"VEC3",
		"componentType":5126,
		"count":1201,
		"min":[1.0,
		1.0,
		1.0],
		"byteOffset":4804,
		"max":[1.5282241106033326,
		1.5282241106033326,
		1.0]
	},
	{
		"bufferView":13,
		"type":"SCALAR",
		"componentType":5123,
		"count":852,
		"min":[0],
		"byteOffset":0,
		"max":[141]
	},
	{
		"bufferView":14,
		"type":"VEC3",
		"componentType":5126,
		"count":142,
		"min":[-0.3440000116825104,
		-0.3780972361564636,
		-0.20000000298023225],
		"byteOffset":0,
		"max":[0.3440000116825104,
		0.3819027543067932,
		4.212784868490512e-17]
	},
	{
		"bufferView":15,
		"type":"SCALAR",
		"componentType":5126,
		"count":1201,
		"min":[0.0],
		"byteOffset":0,
		"max":[40.0]
	},
	{
		"bufferView":15,
		"type":"VEC3",
		"componentType":5126,
		"count":1201,
		"min":[-0.6275855302810669,
		-1.400722622871399,
		-1.2380645275115967],
		"byteOffset":4804,
		"max":[1.1016786098480225,
		1.4842928647994996,
		0.9069676995277405]
	},
	{
		"bufferView":16,
		"type":"SCALAR",
		"componentType":5126,
		"count":1201,
		"min":[0.0],
		"byteOffset":0,
		"max":[40.0]
	},
	{
		"bufferView":16,
		"type":"VEC4",
		"componentType":5126,
		"count":1201,
		"min":[-0.8948293328285217,
		-0.9234655499458313,
		-0.9487074613571167,
		-1.0],
		"byteOffset":4804,
		"max":[0.6016504168510437,
		0.9132422804832459,
		0.9690556526184082,
		0.9925858974456787]
	},
	{
		"bufferView":17,
		"type":"SCALAR",
		"componentType":5126,
		"count":1201,
		"min":[0.0],
		"byteOffset":0,
		"max":[40.0]
	},
	{
		"bufferView":17,
		"type":"VEC3",
		"componentType":5126,
		"count":1201,
		"min":[1.0,
		1.0,
		0.6608448028564453],
		"byteOffset":4804,
		"max":[1.4480688571929932,
		1.4685262441635132,
		1.0]
	},
	{
		"bufferView":18,
		"type":"SCALAR",
		"componentType":5126,
		"count":1201,
		"min":[0.0],
		"byteOffset":0,
		"max":[40.0]
	},
	{
		"bufferView":18,
		"type":"VEC3",
		"componentType":5126,
		"count":1201,
		"min":[1.0,
		1.0,
		1.0],
		"byteOffset":4804,
		"max":[1.6201350688934327,
		1.6201350688934327,
		1.0]
	},
	{
		"bufferView":19,
		"type":"SCALAR",
		"componentType":5123,
		"count":1488,
		"min":[0],
		"byteOffset":0,
		"max":[247]
	},
	{
		"bufferView":20,
		"type":"VEC3",
		"componentType":5126,
		"count":248,
		"min":[-0.4345000088214874,
		-0.394097238779068,
		-0.20000000298023225],
		"byteOffset":0,
		"max":[0.4345000088214874,
		0.3979027569293976,
		5.3210904222813219e-17]
	},
	{
		"bufferView":21,
		"type":"SCALAR",
		"componentType":5126,
		"count":1201,
		"min":[0.0],
		"byteOffset":0,
		"max":[40.0]
	},
	{
		"bufferView":21,
		"type":"VEC3",
		"componentType":5126,
		"count":1201,
		"min":[-0.7788947224617004,
		-0.8340164422988892,
		-1.3892921209335328],
		"byteOffset":4804,
		"max":[0.3688983619213104,
		1.2088184356689454,
		0.9736391305923462]
	},
	{
		"bufferView":22,
		"type":"SCALAR",
		"componentType":5126,
		"count":1201,
		"min":[0.0],
		"byteOffset":0,
		"max":[40.0]
	},
	{
		"bufferView":22,
		"type":"VEC4",
		"componentType":5126,
		"count":1201,
		"min":[-0.9593658447265625,
		-0.9765146374702454,
		-0.9706955552101135,
		-1.0],
		"byteOffset":4804,
		"max":[0.5205708146095276,
		0.9688296914100647,
		0.9846273064613342,
		0.9656023979187012]
	},
	{
		"bufferView":23,
		"type":"SCALAR",
		"componentType":5126,
		"count":1201,
		"min":[0.0],
		"byteOffset":0,
		"max":[40.0]
	},
	{
		"bufferView":23,
		"type":"VEC3",
		"componentType":5126,
		"count":1201,
		"min":[1.0,
		1.0,
		0.6174901723861694],
		"byteOffset":4804,
		"max":[1.5030101537704468,
		1.5493754148483277,
		1.0]
	},
	{
		"bufferView":24,
		"type":"SCALAR",
		"componentType":5126,
		"count":1201,
		"min":[0.0],
		"byteOffset":0,
		"max":[40.0]
	},
	{
		"bufferView":24,
		"type":"VEC3",
		"componentType":5126,
		"count":1201,
		"min":[1.0,
		1.0,
		1.0],
		"byteOffset":4804,
		"max":[1.6381665468215943,
		1.6381665468215943,
		1.0]
	},
	{
		"bufferView":25,
		"type":"SCALAR",
		"componentType":5123,
		"count":132,
		"min":[0],
		"byteOffset":0,
		"max":[23]
	},
	{
		"bufferView":26,
		"type":"VEC3",
		"componentType":5126,
		"count":24,
		"min":[-0.36149999499320986,
		-0.3780972361564636,
		-0.20000000298023225],
		"byteOffset":0,
		"max":[0.36149999499320986,
		0.3819027543067932,
		4.427098100780141e-17]
	},
	{
		"bufferView":27,
		"type":"SCALAR",
		"componentType":5126,
		"count":1201,
		"min":[0.0],
		"byteOffset":0,
		"max":[40.0]
	},
	{
		"bufferView":27,
		"type":"VEC3",
		"componentType":5126,
		"count":1201,
		"min":[-0.9898103475570679,
		-0.9692316055297852,
		-0.8348382115364075],
		"byteOffset":4804,
		"max":[1.0169625282287598,
		0.995855987071991,
		1.3085373640060425]
	},
	{
		"bufferView":28,
		"type":"SCALAR",
		"componentType":5126,
		"count":1201,
		"min":[0.0],
		"byteOffset":0,
		"max":[40.0]
	},
	{
		"bufferView":28,
		"type":"VEC4",
		"componentType":5126,
		"count":1201,
		"min":[-0.9910860061645508,
		-0.9274604916572571,
		-0.9781742095947266,
		-1.0],
		"byteOffset":4804,
		"max":[0.6454667448997498,
		0.9597387909889221,
		0.9464680552482605,
		0.9840341806411743]
	},
	{
		"bufferView":29,
		"type":"SCALAR",
		"componentType":5126,
		"count":1201,
		"min":[0.0],
		"byteOffset":0,
		"max":[40.0]
	},
	{
		"bufferView":29,
		"type":"VEC3",
		"componentType":5126,
		"count":1201,
		"min":[1.0,
		1.0,
		0.6152951121330261],
		"byteOffset":4804,
		"max":[1.4709523916244507,
		1.468415379524231,
		1.0]
	}],
	"bufferViews":[{
		"buffer":0,
		"byteOffset":0,
		"byteLength":19216
	},
	{
		"buffer":1,
		"target":34963,
		"byteOffset":0,
		"byteLength":192
	},
	{
		"buffer":1,
		"target":34962,
		"byteOffset":192,
		"byteLength":216
	},
	{
		"buffer":2,
		"byteOffset":0,
		"byteLength":19216
	},
	{
		"buffer":2,
		"byteOffset":19216,
		"byteLength":24020
	},
	{
		"buffer":2,
		"byteOffset":43236,
		"byteLength":19216
	},
	{
		"buffer":3,
		"byteOffset":0,
		"byteLength":19216
	},
	{
		"buffer":4,
		"target":34963,
		"byteOffset":0,
		"byteLength":216
	},
	{
		"buffer":4,
		"target":34962,
		"byteOffset":216,
		"byteLength":240
	},
	{
		"buffer":5,
		"byteOffset":0,
		"byteLength":19216
	},
	{
		"buffer":5,
		"byteOffset":19216,
		"byteLength":24020
	},
	{
		"buffer":5,
		"byteOffset":43236,
		"byteLength":19216
	},
	{
		"buffer":6,
		"byteOffset":0,
		"byteLength":19216
	},
	{
		"buffer":7,
		"target":34963,
		"byteOffset":0,
		"byteLength":1704
	},
	{
		"buffer":7,
		"target":34962,
		"byteOffset":1704,
		"byteLength":1704
	},
	{
		"buffer":8,
		"byteOffset":0,
		"byteLength":19216
	},
	{
		"buffer":8,
		"byteOffset":19216,
		"byteLength":24020
	},
	{
		"buffer":8,
		"byteOffset":43236,
		"byteLength":19216
	},
	{
		"buffer":9,
		"byteOffset":0,
		"byteLength":19216
	},
	{
		"buffer":10,
		"target":34963,
		"byteOffset":0,
		"byteLength":2976
	},
	{
		"buffer":10,
		"target":34962,
		"byteOffset":2976,
		"byteLength":2976
	},
	{
		"buffer":11,
		"byteOffset":0,
		"byteLength":19216
	},
	{
		"buffer":11,
		"byteOffset":19216,
		"byteLength":24020
	},
	{
		"buffer":11,
		"byteOffset":43236,
		"byteLength":19216
	},
	{
		"buffer":12,
		"byteOffset":0,
		"byteLength":19216
	},
	{
		"buffer":13,
		"target":34963,
		"byteOffset":0,
		"byteLength":264
	},
	{
		"buffer":13,
		"target":34962,
		"byteOffset":264,
		"byteLength":288
	},
	{
		"buffer":14,
		"byteOffset":0,
		"byteLength":19216
	},
	{
		"buffer":14,
		"byteOffset":19216,
		"byteLength":24020
	},
	{
		"buffer":14,
		"byteOffset":43236,
		"byteLength":19216
	}],
	"buffers":[{
		"uri":"data:application/octet-stream;base64,",
		"byteLength":19216
	},
	{
		"uri":"data:application/octet-stream;base64,",
		"byteLength":408
	},
	{
		"uri":"data:application/octet-stream;base64,",
		"byteLength":62452
	},
	{
		"uri":"data:application/octet-stream;base64,",
		"byteLength":19216
	},
	{
		"uri":"data:application/octet-stream;base64,",
		"byteLength":456
	},
	{
		"uri":"data:application/octet-stream;base64,",
		"byteLength":62452
	},
	{
		"uri":"data:application/octet-stream;base64,",
		"byteLength":19216
	},
	{
		"uri":"data:application/octet-stream;base64,",
		"byteLength":3408
	},
	{
		"uri":"data:application/octet-stream;base64,",
		"byteLength":62452
	},
	{
		"uri":"data:application/octet-stream;base64,",
		"byteLength":19216
	},
	{
		"uri":"data:application/octet-stream;base64,",
		"byteLength":5952
	},
	{
		"uri":"data:application/octet-stream;base64,",
		"byteLength":62452
	},
	{
		"uri":"data:application/octet-stream;base64,",
		"byteLength":19216
	},
	{
		"uri":"data:application/octet-stream;base64,",
		"byteLength":552
	},
	{
		"uri":"data:application/octet-stream;base64,",
		"byteLength":62452
	}],
	"materials":[{
		"pbrMetallicRoughness":{
			"baseColorFactor":[0.8,
			0.8,
			0.8,
			1.0],
			"metallicFactor":0.0,
			"roughnessFactor":0.5
		},
		"emissiveFactor":[0.0,
		0.0,
		0.0],
		"alphaMode":"OPAQUE",
		"doubleSided":false,
		"name":"Mat"
	}],
	"animations":[{
		"samplers":[{
			"input":0,
			"interpolation":"LINEAR",
			"output":1
		},
		{
			"input":4,
			"interpolation":"LINEAR",
			"output":5
		},
		{
			"input":6,
			"interpolation":"LINEAR",
			"output":7
		},
		{
			"input":8,
			"interpolation":"LINEAR",
			"output":9
		},
		{
			"input":10,
			"interpolation":"LINEAR",
			"output":11
		},
		{
			"input":14,
			"interpolation":"LINEAR",
			"output":15
		},
		{
			"input":16,
			"interpolation":"LINEAR",
			"output":17
		},
		{
			"input":18,
			"interpolation":"LINEAR",
			"output":19
		},
		{
			"input":20,
			"interpolation":"LINEAR",
			"output":21
		},
		{
			"input":24,
			"interpolation":"LINEAR",
			"output":25
		},
		{
			"input":26,
			"interpolation":"LINEAR",
			"output":27
		},
		{
			"input":28,
			"interpolation":"LINEAR",
			"output":29
		},
		{
			"input":30,
			"interpolation":"LINEAR",
			"output":31
		},
		{
			"input":34,
			"interpolation":"LINEAR",
			"output":35
		},
		{
			"input":36,
			"interpolation":"LINEAR",
			"output":37
		},
		{
			"input":38,
			"interpolation":"LINEAR",
			"output":39
		},
		{
			"input":40,
			"interpolation":"LINEAR",
			"output":41
		},
		{
			"input":44,
			"interpolation":"LINEAR",
			"output":45
		},
		{
			"input":46,
			"interpolation":"LINEAR",
			"output":47
		},
		{
			"input":48,
			"interpolation":"LINEAR",
			"output":49
		}],
		"channels":[{
			"sampler":0,
			"target":{
				"node":1,
				"path":"scale"
			}
		},
		{
			"sampler":1,
			"target":{
				"node":2,
				"path":"translation"
			}
		},
		{
			"sampler":2,
			"target":{
				"node":2,
				"path":"rotation"
			}
		},
		{
			"sampler":3,
			"target":{
				"node":2,
				"path":"scale"
			}
		},
		{
			"sampler":4,
			"target":{
				"node":3,
				"path":"scale"
			}
		},
		{
			"sampler":5,
			"target":{
				"node":4,
				"path":"translation"
			}
		},
		{
			"sampler":6,
			"target":{
				"node":4,
				"path":"rotation"
			}
		},
		{
			"sampler":7,
			"target":{
				"node":4,
				"path":"scale"
			}
		},
		{
			"sampler":8,
			"target":{
				"node":5,
				"path":"scale"
			}
		},
		{
			"sampler":9,
			"target":{
				"node":6,
				"path":"translation"
			}
		},
		{
			"sampler":10,
			"target":{
				"node":6,
				"path":"rotation"
			}
		},
		{
			"sampler":11,
			"target":{
				"node":6,
				"path":"scale"
			}
		},
		{
			"sampler":12,
			"target":{
				"node":7,
				"path":"scale"
			}
		},
		{
			"sampler":13,
			"target":{
				"node":8,
				"path":"translation"
			}
		},
		{
			"sampler":14,
			"target":{
				"node":8,
				"path":"rotation"
			}
		},
		{
			"sampler":15,
			"target":{
				"node":8,
				"path":"scale"
			}
		},
		{
			"sampler":16,
			"target":{
				"node":9,
				"path":"scale"
			}
		},
		{
			"sampler":17,
			"target":{
				"node":10,
				"path":"translation"
			}
		},
		{
			"sampler":18,
			"target":{
				"node":10,
				"path":"rotation"
			}
		},
		{
			"sampler":19,
			"target":{
				"node":10,
				"path":"scale"
			}
		}]
	}]
}