{
	"asset":{
		"version":"2.0",
		"generator":"Created using the official Cinema 4D glTF Exporter 1.000x284978"
	},
	"scenes":[{
		"nodes":[0]
	}],
	"nodes":[{
		"scale":[1.0,
		1.0,
		1.0],
		"name":"Cloner",
		"translation":[0.0,
		0.2126968801021576,
		1.3023927311784144e-17],
		"rotation":[0.7071067690849304,
		0.0,
		0.0,
		-0.7071067690849304],
		"children":[1,
		2,
		3,
		4,
		5]
	},
	{
		"scale":[3.1420328617095949,
		3.1420328617095949,
		1.0],
		"name":"Extrude-H_0",
		"translation":[0.0,
		0.0,
		7.974855814760759e-34],
		"rotation":[0.0,
		0.0,
		0.0,
		-1.0],
		"mesh":0
	},
	{
		"scale":[2.4330432415008547,
		2.4330432415008547,
		1.0],
		"name":"Extrude-H_1_1",
		"translation":[0.0,
		0.0,
		1.0],
		"rotation":[0.0,
		0.0,
		7.450580596923828e-9,
		-1.0],
		"mesh":1
	},
	{
		"scale":[4.095760345458984,
		4.095760345458984,
		1.0],
		"name":"Extrude-H_2_2",
		"translation":[0.0,
		0.0,
		2.0],
		"rotation":[0.0,
		0.0,
		0.0,
		-1.0],
		"mesh":2
	},
	{
		"scale":[5.255675315856934,
		5.255675315856934,
		1.0],
		"name":"Extrude-H_3_3",
		"translation":[0.0,
		0.0,
		3.0],
		"rotation":[1.2246468525851679e-16,
		0.0,
		0.0,
		-1.0],
		"mesh":3
	},
	{
		"scale":[7.376842021942139,
		7.376842021942139,
		1.0],
		"name":"Extrude-H_4_4",
		"translation":[0.0,
		0.0,
		4.0],
		"rotation":[0.0,
		0.0,
		7.450580596923828e-9,
		-1.0],
		"mesh":4
	}],
	"meshes":[{
		"name":"Extrude-H_0",
		"primitives":[{
			"attributes":{
				"POSITION":1
			},
			"indices":0
		}]
	},
	{
		"name":"Extrude-H_1_1",
		"primitives":[{
			"attributes":{
				"POSITION":5
			},
			"indices":4
		}]
	},
	{
		"name":"Extrude-H_2_2",
		"primitives":[{
			"attributes":{
				"POSITION":9
			},
			"indices":8
		}]
	},
	{
		"name":"Extrude-H_3_3",
		"primitives":[{
			"attributes":{
				"POSITION":13
			},
			"indices":12
		}]
	},
	{
		"name":"Extrude-H_4_4",
		"primitives":[{
			"attributes":{
				"POSITION":17
			},
			"indices":16
		}]
	}],
	"accessors":[{
		"bufferView":0,
		"type":"SCALAR",
		"componentType":5123,
		"count":96,
		"min":[0],
		"byteOffset":0,
		"max":[17]
	},
	{
		"bufferView":1,
		"type":"VEC3",
		"componentType":5126,
		"count":18,
		"min":[-0.39250001311302187,
		-0.3780972361564636,
		-0.20000000298023225],
		"byteOffset":0,
		"max":[0.39250001311302187,
		0.3819027543067932,
		4.8067385986117636e-17]
	},
	{
		"bufferView":2,
		"type":"SCALAR",
		"componentType":5126,
		"count":1201,
		"min":[0.0],
		"byteOffset":0,
		"max":[40.0]
	},
	{
		"bufferView":2,
		"type":"VEC3",
		"componentType":5126,
		"count":1201,
		"min":[1.0,
		1.0,
		1.0],
		"byteOffset":4804,
		"max":[3.5732805728912355,
		3.5732805728912355,
		1.0]
	},
	{
		"bufferView":3,
		"type":"SCALAR",
		"componentType":5123,
		"count":108,
		"min":[0],
		"byteOffset":0,
		"max":[19]
	},
	{
		"bufferView":4,
		"type":"VEC3",
		"componentType":5126,
		"count":20,
		"min":[-0.36149999499320986,
		-0.3780972361564636,
		-0.20000000298023225],
		"byteOffset":0,
		"max":[0.36149999499320986,
		0.3819027543067932,
		4.427098100780141e-17]
	},
	{
		"bufferView":5,
		"type":"SCALAR",
		"componentType":5126,
		"count":1201,
		"min":[0.0],
		"byteOffset":0,
		"max":[40.0]
	},
	{
		"bufferView":5,
		"type":"VEC3",
		"componentType":5126,
		"count":1201,
		"min":[2.0,
		2.0,
		1.0],
		"byteOffset":4804,
		"max":[3.1839780807495119,
		3.1839780807495119,
		1.0]
	},
	{
		"bufferView":6,
		"type":"SCALAR",
		"componentType":5123,
		"count":852,
		"min":[0],
		"byteOffset":0,
		"max":[141]
	},
	{
		"bufferView":7,
		"type":"VEC3",
		"componentType":5126,
		"count":142,
		"min":[-0.3440000116825104,
		-0.3780972361564636,
		-0.20000000298023225],
		"byteOffset":0,
		"max":[0.3440000116825104,
		0.3819027543067932,
		4.212784868490512e-17]
	},
	{
		"bufferView":8,
		"type":"SCALAR",
		"componentType":5126,
		"count":1201,
		"min":[0.0],
		"byteOffset":0,
		"max":[40.0]
	},
	{
		"bufferView":8,
		"type":"VEC3",
		"componentType":5126,
		"count":1201,
		"min":[3.0,
		3.0,
		1.0],
		"byteOffset":4804,
		"max":[4.584672451019287,
		4.584672451019287,
		1.0]
	},
	{
		"bufferView":9,
		"type":"SCALAR",
		"componentType":5123,
		"count":1488,
		"min":[0],
		"byteOffset":0,
		"max":[247]
	},
	{
		"bufferView":10,
		"type":"VEC3",
		"componentType":5126,
		"count":248,
		"min":[-0.4345000088214874,
		-0.394097238779068,
		-0.20000000298023225],
		"byteOffset":0,
		"max":[0.4345000088214874,
		0.3979027569293976,
		5.3210904222813219e-17]
	},
	{
		"bufferView":11,
		"type":"SCALAR",
		"componentType":5126,
		"count":1201,
		"min":[0.0],
		"byteOffset":0,
		"max":[40.0]
	},
	{
		"bufferView":11,
		"type":"VEC3",
		"componentType":5126,
		"count":1201,
		"min":[4.0,
		4.0,
		1.0],
		"byteOffset":4804,
		"max":[6.4805402755737309,
		6.4805402755737309,
		1.0]
	},
	{
		"bufferView":12,
		"type":"SCALAR",
		"componentType":5123,
		"count":132,
		"min":[0],
		"byteOffset":0,
		"max":[23]
	},
	{
		"bufferView":13,
		"type":"VEC3",
		"componentType":5126,
		"count":24,
		"min":[-0.36149999499320986,
		-0.3780972361564636,
		-0.20000000298023225],
		"byteOffset":0,
		"max":[0.36149999499320986,
		0.3819027543067932,
		4.427098100780141e-17]
	},
	{
		"bufferView":14,
		"type":"SCALAR",
		"componentType":5126,
		"count":1201,
		"min":[0.0],
		"byteOffset":0,
		"max":[40.0]
	},
	{
		"bufferView":14,
		"type":"VEC3",
		"componentType":5126,
		"count":1201,
		"min":[5.0,
		5.0,
		1.0],
		"byteOffset":4804,
		"max":[8.190832138061524,
		8.190832138061524,
		1.0]
	}],
	"bufferViews":[{
		"buffer":0,
		"target":34963,
		"byteOffset":0,
		"byteLength":192
	},
	{
		"buffer":0,
		"target":34962,
		"byteOffset":192,
		"byteLength":216
	},
	{
		"buffer":1,
		"byteOffset":0,
		"byteLength":19216
	},
	{
		"buffer":2,
		"target":34963,
		"byteOffset":0,
		"byteLength":216
	},
	{
		"buffer":2,
		"target":34962,
		"byteOffset":216,
		"byteLength":240
	},
	{
		"buffer":3,
		"byteOffset":0,
		"byteLength":19216
	},
	{
		"buffer":4,
		"target":34963,
		"byteOffset":0,
		"byteLength":1704
	},
	{
		"buffer":4,
		"target":34962,
		"byteOffset":1704,
		"byteLength":1704
	},
	{
		"buffer":5,
		"byteOffset":0,
		"byteLength":19216
	},
	{
		"buffer":6,
		"target":34963,
		"byteOffset":0,
		"byteLength":2976
	},
	{
		"buffer":6,
		"target":34962,
		"byteOffset":2976,
		"byteLength":2976
	},
	{
		"buffer":7,
		"byteOffset":0,
		"byteLength":19216
	},
	{
		"buffer":8,
		"target":34963,
		"byteOffset":0,
		"byteLength":264
	},
	{
		"buffer":8,
		"target":34962,
		"byteOffset":264,
		"byteLength":288
	},
	{
		"buffer":9,
		"byteOffset":0,
		"byteLength":19216
	}],
	"buffers":[{
		"uri":"data:application/octet-stream;base64,",
		"byteLength":408
	},
	{
		"uri":"data:application/octet-stream;base64,",
		"byteLength":19216
	},
	{
		"uri":"data:application/octet-stream;base64,",
		"byteLength":456
	},
	{
		"uri":"data:application/octet-stream;base64,",
		"byteLength":19216
	},
	{
		"uri":"data:application/octet-stream;base64,",
		"byteLength":3408
	},
	{
		"uri":"data:application/octet-stream;base64,",
		"byteLength":19216
	},
	{
		"uri":"data:application/octet-stream;base64,",
		"byteLength":5952
	},
	{
		"uri":"data:application/octet-stream;base64,",
		"byteLength":19216
	},
	{
		"uri":"data:application/octet-stream;base64,",
		"byteLength":552
	},
	{
		"uri":"data:application/octet-stream;base64,",
		"byteLength":19216
	}],
	"animations":[{
		"samplers":[{
			"input":2,
			"interpolation":"LINEAR",
			"output":3
		},
		{
			"input":6,
			"interpolation":"LINEAR",
			"output":7
		},
		{
			"input":10,
			"interpolation":"LINEAR",
			"output":11
		},
		{
			"input":14,
			"interpolation":"LINEAR",
			"output":15
		},
		{
			"input":18,
			"interpolation":"LINEAR",
			"output":19
		}],
		"channels":[{
			"sampler":0,
			"target":{
				"node":1,
				"path":"scale"
			}
		},
		{
			"sampler":1,
			"target":{
				"node":2,
				"path":"scale"
			}
		},
		{
			"sampler":2,
			"target":{
				"node":3,
				"path":"scale"
			}
		},
		{
			"sampler":3,
			"target":{
				"node":4,
				"path":"scale"
			}
		},
		{
			"sampler":4,
			"target":{
				"node":5,
				"path":"scale"
			}
		}]
	}]
}