{
	"asset":{
		"version":"2.0",
		"generator":"Created using the official Cinema 4D glTF Exporter 1.000x284978"
	},
	"scenes":[{
		"nodes":[0]
	}],
	"nodes":[{
		"scale":[0.009999999776482582,
		0.009999999776482582,
		0.009999999776482582],
		"name":"Extrude",
		"translation":[7.85504473965748e-17,
		0.00041207141475751996,
		-7.85504473965748e-17],
		"rotation":[-1.2244485939359512e-16,
		-0.9999999403953552,
		0.00032364012440666556,
		6.119270413430485e-17],
		"mesh":0
	}],
	"meshes":[{
		"name":"Extrude",
		"primitives":[{
			"attributes":{
				"POSITION":1
			},
			"indices":0,
			"material":0
		}]
	}],
	"accessors":[{
		"bufferView":0,
		"type":"SCALAR",
		"componentType":5123,
		"count":132,
		"min":[0],
		"byteOffset":0,
		"max":[23]
	},
	{
		"bufferView":1,
		"type":"VEC3",
		"componentType":5126,
		"count":24,
		"min":[-37.90488815307617,
		-3.0564241577517609e-15,
		-49.91519546508789],
		"byteOffset":0,
		"max":[37.392024993896487,
		23.14443588256836,
		44.948577880859378]
	},
	{
		"bufferView":2,
		"type":"SCALAR",
		"componentType":5126,
		"count":121,
		"min":[0.0],
		"byteOffset":0,
		"max":[4.0]
	},
	{
		"bufferView":2,
		"type":"VEC3",
		"componentType":5126,
		"count":121,
		"min":[7.85504473965748e-17,
		0.0,
		-7.85504473965748e-17],
		"byteOffset":484,
		"max":[7.85504473965748e-17,
		0.5,
		-7.85504473965748e-17]
	},
	{
		"bufferView":3,
		"type":"SCALAR",
		"componentType":5126,
		"count":121,
		"min":[0.0],
		"byteOffset":0,
		"max":[4.0]
	},
	{
		"bufferView":3,
		"type":"VEC4",
		"componentType":5126,
		"count":121,
		"min":[-1.2246468525851679e-16,
		-1.0,
		1.2246468525851679e-16,
		9.706101738930887e-18],
		"byteOffset":484,
		"max":[-8.97100072149767e-17,
		-0.9238795042037964,
		0.3826834261417389,
		6.123234262925839e-17]
	}],
	"bufferViews":[{
		"buffer":0,
		"target":34963,
		"byteOffset":0,
		"byteLength":264
	},
	{
		"buffer":0,
		"target":34962,
		"byteOffset":264,
		"byteLength":288
	},
	{
		"buffer":1,
		"byteOffset":0,
		"byteLength":1936
	},
	{
		"buffer":1,
		"byteOffset":1936,
		"byteLength":2420
	}],
	"buffers":[{
		"uri":"data:application/octet-stream;base64,",
		"byteLength":552
	},
	{
		"uri":"data:application/octet-stream;base64,",
		"byteLength":4356
	}],
	"materials":[{
		"pbrMetallicRoughness":{
			"baseColorFactor":[0.9490196078431372,
			0.9137254901960782,
			0.2705882352941177,
			1.0],
			"metallicFactor":0.0,
			"roughnessFactor":0.5
		},
		"emissiveFactor":[0.0,
		0.0,
		0.0],
		"alphaMode":"OPAQUE",
		"doubleSided":false,
		"name":"Mat"
	}],
	"animations":[{
		"samplers":[{
			"input":2,
			"interpolation":"LINEAR",
			"output":3
		},
		{
			"input":4,
			"interpolation":"LINEAR",
			"output":5
		}],
		"channels":[{
			"sampler":0,
			"target":{
				"node":0,
				"path":"translation"
			}
		},
		{
			"sampler":1,
			"target":{
				"node":0,
				"path":"rotation"
			}
		}]
	}]
}