{"asset":{"generator":"glTF-Transform v3.10.0","version":"2.0"},"accessors":[{"type":"SCALAR","componentType":5123,"count":132,"bufferView":0,"byteOffset":0},{"type":"VEC3","componentType":5126,"count":24,"max":[56.545806884765625,35,67.97315216064453],"min":[-57.321380615234375,-4.622054658226429e-15,-75.48387908935547],"bufferView":1,"byteOffset":0},{"type":"SCALAR","componentType":5126,"count":121,"max":[4],"min":[0],"bufferView":2,"byteOffset":0},{"type":"VEC3","componentType":5126,"count":121,"bufferView":2,"byteOffset":484},{"type":"SCALAR","componentType":5126,"count":121,"max":[4],"min":[0],"bufferView":2,"byteOffset":1936},{"type":"VEC4","componentType":5126,"count":121,"bufferView":2,"byteOffset":2420}],"bufferViews":[{"buffer":0,"byteOffset":0,"byteLength":264,"target":34963},{"buffer":0,"byteOffset":264,"byteLength":288,"byteStride":12,"target":34962},{"buffer":1,"byteOffset":0,"byteLength":4356}],"buffers":[{"uri":"MOU-05-24_SoundSticker_PDF_ARAsset_1.bin","byteLength":552},{"uri":"MOU-05-24_SoundSticker_PDF_ARAsset_2.bin","byteLength":4356}],"materials":[{"name":"Mat","pbrMetallicRoughness":{"baseColorFactor":[0.9490196078431372,0.9137254901960782,0.2705882352941177,1],"roughnessFactor":0.5,"metallicFactor":0}}],"meshes":[{"name":"Extrude","primitives":[{"attributes":{"POSITION":1},"mode":4,"material":0,"indices":0}]}],"nodes":[{"name":"Extrude","rotation":[0,0,0,-1],"scale":[0.009999999776482582,0.009999999776482582,0.009999999776482582],"mesh":0}],"animations":[{"samplers":[{"input":2,"output":3,"interpolation":"LINEAR"},{"input":4,"output":5,"interpolation":"LINEAR"}],"channels":[{"sampler":0,"target":{"node":0,"path":"translation"}},{"sampler":1,"target":{"node":0,"path":"rotation"}}]}],"scenes":[{"nodes":[0]}]}